<svg width="1920" height="2304" viewBox="0 0 1920 2304" fill="none" xmlns="http://www.w3.org/2000/svg">
<path d="M0 0H1920V2304H0V0Z" fill="#009DFF"/>
<g style="mix-blend-mode:soft-light">
<path fill-rule="evenodd" clip-rule="evenodd" d="M1258.3 9.81427e-08C1200.85 82.3768 1142.06 168.432 1081.93 258.167C972.112 429.91 863.438 603.005 755.908 777.45C653.368 952.312 554.883 1123.74 460.453 1291.74C366.024 1459.74 284.176 1612.46 214.911 1749.89C361.922 1704.35 526.088 1648.94 707.41 1583.64C888.732 1518.35 1072.97 1448.27 1260.11 1373.41C1452.25 1298.97 1640.95 1220.47 1826.23 1137.92C1857.91 1124.25 1889.16 1110.61 1920 1097V1616.92C1689.87 1709.37 1459.79 1794.43 1229.76 1872.1C784.492 2025.66 374.572 2155.27 0 2260.93L2.12414e-07 1175.71C77.5513 1024.76 159.34 869.039 245.366 708.552C374.531 471.285 512.453 235.101 659.131 0L1258.3 9.81427e-08Z" fill="#00D7FF"/>
</g>
</svg>
