<svg width="1347" height="1632" viewBox="0 0 1347 1632" fill="none" xmlns="http://www.w3.org/2000/svg">
<path d="M0.880859 0H1346.68V1632H0.880859V0Z" fill="#009DFF"/>
<g style="mix-blend-mode:soft-light">
<path fill-rule="evenodd" clip-rule="evenodd" d="M1346.68 989.759C982.557 1156.05 618.573 1300.63 254.731 1423.48C168.559 1453.2 83.942 1481.86 0.880859 1509.47L0.880859 1107.69C93.243 1072.89 186.47 1036.67 280.562 999.035C444.093 935.675 604.704 868.864 762.397 798.603C924.336 728.695 1073.36 659.85 1209.46 592.067L1346.68 754.267V989.759ZM0.880859 251.732L0.880859 4.56857e-08L162.432 0C151.312 16.4572 140.137 33.0651 128.907 49.8238C86.0267 116.884 43.3514 184.187 0.880859 251.732Z" fill="#00CCFF"/>
</g>
</svg>
