<svg width="1339" height="1632" viewBox="0 0 1339 1632" fill="none" xmlns="http://www.w3.org/2000/svg">
<rect x="0.998047" y="0.000976562" width="1338" height="1632" fill="#E8F9FD"/>
<path fill-rule="evenodd" clip-rule="evenodd" d="M962.795 0.000976559C907.679 77.6541 850.725 160.349 791.933 248.084C715.325 367.892 639.515 488.642 564.502 610.335C492.971 732.318 424.268 851.907 358.394 969.103C292.52 1086.3 235.424 1192.83 187.104 1288.71C289.659 1256.94 404.18 1218.28 530.67 1172.73C657.159 1127.18 785.68 1078.3 916.232 1026.08C1050.27 974.145 1181.91 919.386 1311.15 861.799C1320.49 857.769 1329.77 853.744 1339 849.724V1210.95C1190.99 1269.67 1043.01 1324 895.061 1373.96C602.747 1474.77 332.271 1560.78 83.6342 1632H0.998047L0.998047 958.969C65.6741 831.732 134.791 699.499 208.35 562.272C310.913 373.869 421.392 186.446 539.785 0.000976545L962.795 0.000976559Z" fill="#F8F8F8"/>
</svg>
